<svg width="276" height="136" viewBox="0 0 276 136" fill="none" xmlns="http://www.w3.org/2000/svg">
<path d="M98.5 32.0903C98.5 30.8903 95.5 28.9237 94 28.0903L114.5 22.5903V98.0903C114.5 105.09 125.5 105.59 129 103.09C132.5 100.59 136.5 92.0903 136.5 87.0903V50.0903L132 46.0903L153.5 40.5903V50.0903C154.167 48.0903 157.8 43.0903 167 39.0903C176.2 35.0903 182.5 42.0903 184.5 46.0903L174.5 53.0903C173.833 50.757 171.2 45.7903 166 44.5903C159.5 43.0903 144 60.0903 141 81.0903C138 102.09 128 109.09 115.5 109.09C105.5 109.09 100 101.424 98.5 97.5903V32.0903Z" fill="#C6947D"/>
<path fill-rule="evenodd" clip-rule="evenodd" d="M124.5 42.0903H90.5V40.0903H124.5V42.0903Z" fill="#C6947D"/>
<path d="M144 75.5903C140.091 97.0903 134.667 102.09 131.5 107.09H158.5L153.5 101.59V56.0903C151.333 57.0903 146.4 62.3903 144 75.5903Z" fill="#C6947D"/>
<path d="M190.5 104.09L186.5 108.09H212L207 104.09V53.5903C209.667 51.257 217 46.7903 225 47.5903C233 48.3903 234.667 58.5903 234.5 63.5903V103.09L229.5 108.09H255.5L251.5 103.09V63.5903C251.5 47.5903 240 40.0903 228 40.0903C218.4 40.0903 209.333 48.0903 206 52.0903V36.0903C206 30.5903 210 12.0903 229.5 4.59032C245.1 -1.40968 256 3.42365 259.5 6.59032C255 7.92365 246 12.1903 246 18.5903C246 26.5903 252.5 33.5903 258 33.5903C263.5 33.5903 274.5 30.5903 273 18.5903C271.5 6.59032 253 -5.40968 228 2.59032C208 8.99032 202.667 31.9237 202.5 42.5903L186.5 47.5903L190.5 52.0903V104.09Z" fill="#C6947D"/>
<path d="M260 54.5903L256 49.0903L276 44.5903V117.59C274.5 123.09 269 134.29 259 135.09C249 135.89 240.833 128.424 238 124.59L247.5 120.59C247.833 126.09 250.8 136.09 260 132.09C269.2 128.09 263.833 117.757 260 113.09V54.5903Z" fill="#C6947D"/>
<path fill-rule="evenodd" clip-rule="evenodd" d="M0 106.59C2.16667 105.59 6.9 102.79 8.5 99.5903C10.1 96.3903 32.5 32.5903 43.5 1.09033L84.5 96.5903C86.1667 98.757 89.9 103.29 91.5 104.09C93.1 104.89 95.8333 106.09 97 106.59H62C63.5 105.424 66.4 102.39 66 99.5903C65.6 96.7903 58.8333 81.757 55.5 74.5903H19.5L10.5 101.09L15.5 106.59H0ZM20 72.5903H55L36.5 28.0903L20 72.5903Z" fill="#C6947D"/>
</svg>
